<svg xmlns="http://www.w3.org/2000/svg" version="1.1" xmlns:xlink="http://www.w3.org/1999/xlink" xmlns:svgjs="http://svgjs.dev/svgjs" width="1000" height="282" viewBox="0 0 1000 282"><g transform="matrix(1,0,0,1,-0.6060606060606233,-0.4112729145641083)"><svg viewBox="0 0 396 112" data-background-color="#ffffff" preserveAspectRatio="xMidYMid meet" height="282" width="1000" xmlns="http://www.w3.org/2000/svg" xmlns:xlink="http://www.w3.org/1999/xlink"><defs></defs><g id="tight-bounds" transform="matrix(1,0,0,1,0.2400000000000091,0.16334243415312244)"><svg viewBox="0 0 395.52 111.67331513169377" height="111.67331513169377" width="395.52"><g><svg viewBox="0 0 597.3794967020327 168.6674473817221" height="111.67331513169377" width="395.52"><g transform="matrix(1,0,0,1,201.85949670203271,49.18397390656424)"><svg viewBox="0 0 395.52 70.29949956859362" height="70.29949956859362" width="395.52"><g><svg viewBox="0 0 395.52 70.29949956859362" height="70.29949956859362" width="395.52"><g><svg viewBox="0 0 395.52 70.29949956859362" height="70.29949956859362" width="395.52"><g transform="matrix(1,0,0,1,0,0)"><svg width="395.52" viewBox="2 -37.45000076293945 228.11000061035156 40.22999954223633" height="70.29949956859362" data-palette-color="#085f63"><g class="undefined-text-0" data-fill-palette-color="primary" id="text-0"><path d="M2-1.27L2-1.27 2.25-35.64Q2.78-37.45 6.45-37.45L6.45-37.45Q9.81-37.45 12.65-36.55 15.48-35.64 17.41-33.52 19.34-31.4 19.34-28.42L19.34-28.42Q19.34-26.07 18.19-23.88 17.04-21.68 15.38-21.04L15.38-21.04Q18.51-20.61 20.41-17.29 22.31-13.96 22.31-9.42L22.31-9.42Q22.31-6.35 19.87-4.08 17.43-1.81 14.18-0.81 10.94 0.2 7.62 0.2L7.62 0.2Q3.56 0.2 2-1.27ZM6.01-18.36L6.01-18.36Q6.01-14.99 5.91-4.83L5.91-4.83Q7.37-3.17 9.67-3.17L9.67-3.17Q12.7-3.17 15.53-5.69 18.36-8.2 18.36-11.08L18.36-11.08Q18.36-14.65 15.97-16.65 13.57-18.65 9.81-18.65L9.81-18.65Q7.32-18.65 6.01-18.36ZM5.91-21.97L5.91-21.97 8.94-22.02Q12.06-22.02 13.75-23.85 15.43-25.68 15.43-28.22L15.43-28.22Q15.43-30.81 13.72-32.69 12.01-34.57 8.98-34.57L8.98-34.57Q7.62-34.57 5.76-33.98L5.76-33.98Q5.86-31.01 5.88-26.61 5.91-22.22 5.91-21.97ZM26.32-16.36L26.32-16.36Q26.32-18.02 26.32-18.87 26.32-19.73 26.39-21.48 26.46-23.24 26.58-24.27 26.71-25.29 26.95-26.93 27.19-28.56 27.59-29.57 27.98-30.57 28.49-31.84 29-33.11 29.78-33.89 30.56-34.67 31.49-35.38 32.42-36.08 33.69-36.43 34.96-36.77 36.47-36.77L36.47-36.77Q39.5-36.77 41.75-35.57 43.99-34.38 45.26-32.57 46.53-30.76 47.29-28.13 48.04-25.49 48.26-23.1 48.48-20.7 48.48-17.82L48.48-17.82Q48.48-15.87 48.41-14.31 48.34-12.74 48.12-10.77 47.9-8.79 47.48-7.28 47.07-5.76 46.34-4.22 45.6-2.69 44.6-1.68 43.6-0.68 42.09-0.05 40.57 0.59 38.72 0.59L38.72 0.59Q35.69 0.59 33.52-0.15 31.35-0.88 29.95-2.2 28.56-3.52 27.76-5.66 26.95-7.81 26.63-10.35 26.32-12.89 26.32-16.36ZM44.97-15.97L44.97-15.97Q44.97-18.36 44.6-20.95 44.24-23.54 43.38-26.51 42.53-29.49 40.67-31.37 38.82-33.25 36.23-33.25L36.23-33.25Q34.27-33.25 32.79-30.64 31.3-28.03 30.66-24.78 30.03-21.53 30.03-18.65L30.03-18.65Q30.03-16.65 30.05-15.6 30.08-14.55 30.22-12.62 30.37-10.69 30.64-9.57 30.91-8.45 31.49-6.98 32.08-5.52 32.88-4.71 33.69-3.91 34.98-3.3 36.28-2.69 37.89-2.64L37.89-2.64Q41.45-2.83 43.21-6.64 44.97-10.45 44.97-15.97ZM61.81-35.4L61.81-35.4 65.52-35.16Q66.89-29.1 71.14-18.04 75.39-6.98 76.75-1.51L76.75-1.51Q76.75-0.1 76.26 0.61 75.78 1.32 75.04 1.32L75.04 1.32Q74.41 1.32 73.85 0.81 73.29 0.29 73.09-0.63L73.09-0.63Q72.65-2.78 70.26-9.23L70.26-9.23Q60.2-10.5 57.61-10.79L57.61-10.79Q56.98-9.03 56.05-5.08 55.12-1.12 54.58 0.39L54.58 0.39Q53.85 1.27 52.92 1.27L52.92 1.27Q51.9 1.27 51.17 0.37 50.43-0.54 50.43-1.86L50.43-1.86Q52-7.57 56.1-18.65 60.2-29.74 61.81-35.4ZM63.52-30.47L63.52-30.47Q62.54-24.56 58.1-13.13L58.1-13.13 63.57-13.13Q67.28-13.13 69.77-12.89L69.77-12.89Q64.74-23.68 63.52-30.47ZM101.36 0.78L101.36 0.78 102.14 2.78Q99.94 2.73 97.55 1.37 95.16 0 93.08-2.08 91.01-4.15 89.37-6.27 87.74-8.4 86.56-10.45L86.56-10.45 82.71-10.89Q82.81-7.32 83.1 0.2L83.1 0.2Q82.66 1.71 81.39 1.71L81.39 1.71Q80.51 1.71 79.7 1 78.9 0.29 78.7-0.73L78.7-0.73Q78.85-4.83 79.02-16.7 79.19-28.56 79.48-35.06L79.48-35.06 81.68-35.64Q81.68-34.08 81.73-33.89L81.73-33.89Q84.51-35.74 89.54-35.74L89.54-35.74Q94.96-35.74 97.65-32.35 100.33-28.96 100.33-22.85L100.33-22.85Q100.33-20.61 99.8-18.53 99.26-16.46 98.21-14.65 97.16-12.84 95.31-11.67 93.45-10.5 91.06-10.3L91.06-10.3Q92.77-6.74 95.65-3.37 98.53 0 101.36 0.78ZM82.17-30.62L82.17-30.62 82.56-15.38Q85.25-13.92 88.76-13.92L88.76-13.92Q92.13-13.92 94.47-16.46 96.82-18.99 96.82-22.66L96.82-22.66Q96.82-26.61 94.38-29.79 91.94-32.96 88.27-32.96L88.27-32.96Q85.3-32.96 82.17-30.62ZM104.63-0.29L104.63-0.29 104.78-35.55Q115.62-35.45 121.52-30 127.43-24.56 127.43-14.06L127.43-14.06Q127.43-10.69 125.67-7.91 123.92-5.13 121.16-3.47 118.4-1.81 115.2-0.9 112 0 108.88 0L108.88 0Q106.92 0 104.63-0.29ZM108.29-3.27L108.29-3.27 109.12-3.27Q111.9-3.27 114.49-3.93 117.08-4.59 119.28-5.91 121.47-7.23 122.79-9.55 124.11-11.87 124.11-14.89L124.11-14.89Q124.11-18.99 121.65-23.22 119.18-27.44 115.69-30.05 112.2-32.67 109.22-32.67L109.22-32.67Q108.58-32.67 108-32.52L108-32.52Q108-29.59 108.29-3.27ZM131.38-1.27L131.38-1.27 131.63-35.64Q132.17-37.45 135.83-37.45L135.83-37.45Q139.2-37.45 142.03-36.55 144.86-35.64 146.79-33.52 148.72-31.4 148.72-28.42L148.72-28.42Q148.72-26.07 147.57-23.88 146.42-21.68 144.76-21.04L144.76-21.04Q147.89-20.61 149.79-17.29 151.7-13.96 151.7-9.42L151.7-9.42Q151.7-6.35 149.26-4.08 146.81-1.81 143.57-0.81 140.32 0.2 137 0.2L137 0.2Q132.95 0.2 131.38-1.27ZM135.39-18.36L135.39-18.36Q135.39-14.99 135.29-4.83L135.29-4.83Q136.76-3.17 139.05-3.17L139.05-3.17Q142.08-3.17 144.91-5.69 147.74-8.2 147.74-11.08L147.74-11.08Q147.74-14.65 145.35-16.65 142.96-18.65 139.2-18.65L139.2-18.65Q136.71-18.65 135.39-18.36ZM135.29-21.97L135.29-21.97 138.32-22.02Q141.44-22.02 143.13-23.85 144.81-25.68 144.81-28.22L144.81-28.22Q144.81-30.81 143.1-32.69 141.39-34.57 138.37-34.57L138.37-34.57Q137-34.57 135.14-33.98L135.14-33.98Q135.24-31.01 135.27-26.61 135.29-22.22 135.29-21.97ZM155.99-35.01L155.99-35.01 158.92-34.72Q159.65-27.25 160.34-3.96L160.34-3.96Q163.61-4.15 168.64-4.15 173.67-4.15 176.69-4.3L176.69-4.3Q176.99-3.47 177.11-1.95 177.23-0.44 177.38 0.29L177.38 0.29Q170.98-0.1 161.07-0.1L161.07-0.1 155.65-0.1Q155.89-7.32 155.92-19.43 155.94-31.54 155.99-35.01ZM179.43-16.36L179.43-16.36Q179.43-18.02 179.43-18.87 179.43-19.73 179.5-21.48 179.57-23.24 179.69-24.27 179.82-25.29 180.06-26.93 180.3-28.56 180.7-29.57 181.09-30.57 181.6-31.84 182.11-33.11 182.89-33.89 183.67-34.67 184.6-35.38 185.53-36.08 186.8-36.43 188.07-36.77 189.58-36.77L189.58-36.77Q192.61-36.77 194.86-35.57 197.1-34.38 198.37-32.57 199.64-30.76 200.4-28.13 201.15-25.49 201.37-23.1 201.59-20.7 201.59-17.82L201.59-17.82Q201.59-15.87 201.52-14.31 201.45-12.74 201.23-10.77 201.01-8.79 200.59-7.28 200.18-5.76 199.45-4.22 198.71-2.69 197.71-1.68 196.71-0.68 195.2-0.05 193.68 0.59 191.83 0.59L191.83 0.59Q188.8 0.59 186.63-0.15 184.46-0.88 183.06-2.2 181.67-3.52 180.87-5.66 180.06-7.81 179.74-10.35 179.43-12.89 179.43-16.36ZM198.08-15.97L198.08-15.97Q198.08-18.36 197.71-20.95 197.35-23.54 196.49-26.51 195.64-29.49 193.78-31.37 191.93-33.25 189.34-33.25L189.34-33.25Q187.38-33.25 185.9-30.64 184.41-28.03 183.77-24.78 183.14-21.53 183.14-18.65L183.14-18.65Q183.14-16.65 183.16-15.6 183.19-14.55 183.33-12.62 183.48-10.69 183.75-9.57 184.02-8.45 184.6-6.98 185.19-5.52 185.99-4.71 186.8-3.91 188.09-3.3 189.39-2.69 191-2.64L191-2.64Q194.56-2.83 196.32-6.64 198.08-10.45 198.08-15.97ZM226.25-10.35L221.51-11.23 220.98-13.43Q221.95-13.57 225.57-13.89 229.18-14.21 230.11-14.4L230.11-14.4 230.11 1.12 226.3 1.9Q226.25 1.42 226.25-0.42 226.25-2.25 226.2-2.78L226.2-2.78Q226.2-2.69 225.86-2.22 225.52-1.76 224.78-1.07 224.05-0.39 223.08 0.24 222.1 0.88 220.59 1.32 219.07 1.76 217.41 1.76L217.41 1.76Q205.55 1.76 205.55-16.7L205.55-16.7Q205.55-19.87 206.03-22.88 206.52-25.88 207.69-28.91 208.87-31.93 211.23-33.79 213.6-35.64 216.87-35.64L216.87-35.64Q219.71-35.64 222.73-34.67 225.76-33.69 227.91-32.23L227.91-32.23 225.96-29.98Q222.15-32.81 218.44-32.81L218.44-32.81Q216-32.81 214.24-31.64 212.48-30.47 211.58-28.81 210.67-27.15 210.16-24.61 209.65-22.07 209.53-20.21 209.4-18.36 209.4-15.87L209.4-15.87Q209.4-9.91 211.6-6.13 213.8-2.34 217.31-2.34L217.31-2.34Q218.83-2.34 220.27-2.83 221.71-3.32 222.73-4 223.76-4.69 224.59-5.42 225.42-6.15 225.83-6.64 226.25-7.13 226.25-7.23L226.25-7.23 226.25-10.35Z" fill="#085f63" data-fill-palette-color="primary"></path></g></svg></g></svg></g></svg></g></svg></g><g><svg viewBox="0 0 168.6674473817221 168.6674473817221" height="168.6674473817221" width="168.6674473817221"><g><svg></svg></g><g id="icon-0"><svg viewBox="0 0 168.6674473817221 168.6674473817221" height="168.6674473817221" width="168.6674473817221"><g><path d="M0 84.334c0-46.576 37.757-84.334 84.334-84.334 46.576 0 84.334 37.757 84.333 84.334 0 46.576-37.757 84.334-84.333 84.333-46.576 0-84.334-37.757-84.334-84.333zM84.334 162.328c43.075 0 77.994-34.919 77.994-77.994 0-43.075-34.919-77.994-77.994-77.994-43.075 0-77.994 34.919-77.994 77.994 0 43.075 34.919 77.994 77.994 77.994z" data-fill-palette-color="accent" fill="#4fa095" stroke="transparent"></path></g><g transform="matrix(1,0,0,1,36.84002740133664,37.82556111864429)"><svg viewBox="0 0 94.98739257904882 93.01632514443352" height="93.01632514443352" width="94.98739257904882"><g><svg xmlns="http://www.w3.org/2000/svg" xmlns:xlink="http://www.w3.org/1999/xlink" version="1.1" x="0" y="0" viewBox="0 0.9960002899169922 95.9959945678711 94.00399780273438" enable-background="new 0 0 96 96" xml:space="preserve" height="93.01632514443352" width="94.98739257904882" class="icon-x-0" data-fill-palette-color="accent" id="x-0"><path d="M86.305 53.729C77.477 50.408 63.508 48.5 48 48.5c-15.504 0-29.468 1.908-38.3 5.229C3.904 55.9 0 61.532 0 67.72V77c0 9.92 8.076 18 18 18h19.564c0.968 0 1.8-0.695 1.968-1.648 0.924-5.203 4.584-11.016 8.092-11.016 3.456 0 7.185 5.916 8.084 11.016 0.164 0.953 1 1.648 1.968 1.648h20.32c9.92 0 18-8.08 18-18v-9.28C96 61.523 92.104 55.9 86.305 53.729L86.305 53.729zM88 77c0 5.516-4.484 10-10 10H63.54c-0.788 0-1.508-0.468-1.828-1.195-2.44-5.549-7.42-11.469-14.084-11.469s-11.644 5.92-14.084 11.469C33.224 86.532 32.508 87 31.712 87H18c-5.512 0-10-4.484-10-10v-9.28c0-2.876 1.812-5.491 4.508-6.508C20.352 58.268 33.62 56.5 48 56.5c14.376 0 27.645 1.756 35.496 4.712C86.188 62.229 88 64.844 88 67.72V77z" fill="#4fa095" data-fill-palette-color="accent"></path><path d="M82.084 64.952C74.668 62.164 61.924 60.5 48 60.5s-26.664 1.664-34.084 4.452C12.768 65.384 12 66.5 12 67.716v9.276c0 3.313 2.692 6 6 6h12.432c3.884-7.952 10.24-12.664 17.192-12.664s13.308 4.712 17.192 12.664H78c3.313 0 6-2.688 6-6v-9.276C84 66.5 83.236 65.384 82.084 64.952zM22.644 69.656c-1.328 0.32-2.556 0.672-3.668 1.056-0.212 0.076-0.432 0.104-0.644 0.104-0.832 0-1.608-0.528-1.892-1.356-0.356-1.048 0.2-2.185 1.248-2.54 1.22-0.416 2.568-0.8 4.02-1.152 1.072-0.252 2.156 0.404 2.416 1.473C24.376 68.316 23.716 69.4 22.644 69.656zM34.204 67.836c-1.34 0.124-2.644 0.271-3.904 0.436-0.088 0.009-0.176 0.017-0.264 0.017-0.988 0-1.848-0.736-1.98-1.744-0.144-1.092 0.624-2.092 1.72-2.244 1.304-0.18 2.656-0.327 4.048-0.456 1.128-0.096 2.076 0.704 2.18 1.801C36.116 66.752 35.308 67.729 34.204 67.836z" fill="#4fa095" data-fill-palette-color="accent"></path><path d="M82.436 48.336c-2.42-14.488-12.312-32.788-29.256-35.864 2.408-1.104 3.969-3.012 3.969-5.224 0-3.508-3.937-6.252-8.964-6.252-5.024 0-8.96 2.752-8.96 6.252 0 2.224 1.584 4.132 4.012 5.24-17.308 3.26-27.252 23.084-29.424 35.776 9.04-2.408 21.084-3.764 34.192-3.764C61.229 44.5 73.376 45.892 82.436 48.336zM48.184 5c2.988 0 4.964 1.36 4.964 2.252 0 0.904-1.984 2.252-4.964 2.252s-4.96-1.356-4.96-2.252C43.224 6.36 45.2 5 48.184 5z" fill="#4fa095" data-fill-palette-color="accent"></path></svg></g></svg></g></svg></g></svg></g></svg></g></svg><rect width="395.52" height="111.67331513169377" fill="none" stroke="none" visibility="hidden"></rect></g></svg></g></svg>